<svg width="161" height="24" viewBox="0 0 161 24" fill="none" xmlns="http://www.w3.org/2000/svg">
<g clip-path="url(#clip0_42_659)">
<path d="M20.6742 17.3153C20.6742 18.4001 20.4307 19.3104 19.941 20.0431C19.4512 20.7759 18.7466 21.3627 17.8185 21.8064C16.8934 22.2472 15.7591 22.5649 14.4158 22.7567C13.0725 22.9485 11.5487 23.0429 9.84159 23.0429H0V22.8025C1.21158 20.7988 1.85031 18.5175 1.85031 16.1904V8.18714C1.85031 5.86861 1.21158 3.59301 0 1.60079V1.36035H11.4169C12.7946 1.36035 14.0005 1.48916 15.0345 1.74391C16.0685 2.00153 16.9306 2.35646 17.618 2.81444C18.3083 3.27243 18.8239 3.81342 19.1705 4.44314C19.5142 5.07 19.6889 5.75698 19.6889 6.5012C19.6889 7.09371 19.5772 7.66046 19.3566 8.20432C19.1361 8.74817 18.7953 9.24909 18.3398 9.70993C17.8816 10.1708 17.303 10.5772 16.6041 10.9293C15.9052 11.2814 15.0717 11.5562 14.1036 11.7594C15.1634 11.9197 16.1029 12.1687 16.9192 12.5036C17.7355 12.8414 18.4229 13.2478 18.9786 13.723C19.5342 14.201 19.9553 14.742 20.2446 15.3517C20.5339 15.9585 20.6771 16.614 20.6771 17.3182L20.6742 17.3153ZM14.1953 17.1636C14.1953 16.4308 14.1093 15.7639 13.9403 15.1599C13.7713 14.5588 13.4964 14.0436 13.1212 13.6171C12.7459 13.1906 12.2619 12.8586 11.6718 12.621C11.0789 12.3863 10.3629 12.266 9.52079 12.266H7.94545V22.1499H9.33461C10.2082 22.1499 10.9558 22.0382 11.5716 21.8178C12.1874 21.5974 12.6887 21.274 13.0753 20.8446C13.462 20.4181 13.7427 19.8943 13.9232 19.2789C14.1036 18.6606 14.1924 17.9565 14.1924 17.1607L14.1953 17.1636ZM9.33461 11.3787C10.0736 11.3787 10.7066 11.2671 11.2308 11.0467C11.7549 10.8263 12.1845 10.5114 12.5197 10.1049C12.8548 9.69848 13.0954 9.21474 13.2443 8.65944C13.3933 8.10127 13.4677 7.48299 13.4677 6.79888C13.4677 6.1663 13.4076 5.57378 13.2902 5.02134C13.1727 4.4689 12.9665 3.98802 12.6743 3.57584C12.3822 3.16365 11.9869 2.8402 11.4943 2.60549C11.0016 2.37077 10.3772 2.25055 9.62677 2.25055H7.94545V11.3816H9.33461V11.3787Z" fill="#980035"/>
<path d="M36.5594 9.54669C36.5594 10.1077 36.379 10.5771 36.0066 10.9521C35.6343 11.3271 35.176 11.5131 34.6289 11.5131C34.1563 11.5131 33.5691 11.3156 32.8789 10.9149C32.813 10.8748 32.7471 10.8376 32.6812 10.8033C32.6268 10.7632 32.5638 10.7231 32.495 10.6831C30.7135 9.66691 30.0576 10.6831 30.0576 10.6831C30.0576 10.6831 29.4732 11.5761 29.3759 12.4978V17.59C29.3759 19.4534 29.9459 21.2739 31.0114 22.8024V23.0142H22.0634V22.8024C23.1089 21.2911 23.6674 19.4992 23.6674 17.6616V12.9558C23.6674 11.496 23.1346 10.0848 22.1723 8.98852V8.76239L29.2241 7.2854L29.3787 7.45142V10.9521L29.5019 10.5686C29.8914 9.54669 30.4843 8.74235 31.2863 8.15843C32.0797 7.5745 32.9877 7.2854 34.0045 7.2854C34.7435 7.2854 35.3536 7.49722 35.8376 7.92657C36.3188 8.35593 36.5594 8.89692 36.5594 9.54955V9.54669Z" fill="#980035"/>
<path d="M46.5126 22.7997V23.0115H37.5962V22.7997L38.1461 22.004C38.8336 21.0107 39.2002 19.8314 39.2002 18.6263V12.9416C39.2002 11.4876 38.6674 10.0878 37.705 9.00014V8.7597L44.7568 7.28271L44.9115 7.44873V18.6149C44.9115 19.8085 45.2724 20.9764 45.9455 21.9639L46.5155 22.7997H46.5126ZM38.9367 3.99097C38.782 3.64462 38.7047 3.26106 38.7047 2.83742C38.7047 2.41379 38.782 2.06172 38.9367 1.71537C39.0913 1.36902 39.3033 1.06847 39.5783 0.810855C39.8504 0.55324 40.174 0.355736 40.5521 0.215479C40.9273 0.0752218 41.3398 0.00366211 41.7923 0.00366211C42.2449 0.00366211 42.6631 0.0752218 43.0497 0.224066C43.4364 0.370048 43.7658 0.570415 44.0436 0.825167C44.3215 1.07992 44.5392 1.38047 44.691 1.72109C44.8456 2.06172 44.923 2.43383 44.923 2.83456C44.923 3.25533 44.8456 3.63889 44.691 3.9881C44.5363 4.33445 44.3215 4.63214 44.0436 4.87544C43.7658 5.12161 43.4336 5.31625 43.0497 5.45651C42.6631 5.59676 42.2449 5.66546 41.7923 5.66546C41.3398 5.66546 40.9245 5.59676 40.5521 5.45651C40.1769 5.31625 39.8532 5.12161 39.5783 4.87544C39.3062 4.62928 39.0913 4.33159 38.9367 3.98524V3.99097Z" fill="#980035"/>
<path d="M81.3076 18.7694C81.3076 18.7694 79.6321 22.8025 75.5476 23.3263C75.5362 23.3263 75.5276 23.3292 75.519 23.3292C75.393 23.3406 75.2669 23.3521 75.1352 23.3578C75.1123 23.3578 75.0836 23.3607 75.055 23.3607H75.0263C74.7199 23.3807 74.4048 23.3836 74.0754 23.3578C72.0275 23.2519 70.3404 22.522 69.0171 21.1795C67.5707 19.714 66.8489 17.8019 66.8489 15.4433C66.8489 14.2268 67.0895 13.0761 67.5707 11.9798C68.0547 10.8864 68.7393 9.94465 69.6301 9.1575C70.3776 8.49915 71.2111 7.99823 72.122 7.65188C73.0357 7.30839 73.9866 7.13379 74.9834 7.13379C76.7019 7.13379 78.1341 7.56887 79.2626 8.43617C80.3911 9.30062 80.9582 10.3797 80.9582 11.6793C80.9582 12.4092 80.7176 13.0131 80.2336 13.4997C79.7552 13.9863 79.1509 14.2268 78.4348 14.2268C77.7932 14.2268 77.2633 14.0007 76.8394 13.5455C76.4098 13.0847 76.2007 12.5265 76.2007 11.8596C76.2007 10.3797 76.0661 9.41797 75.7968 8.96572C75.5276 8.51346 75.0607 8.28733 74.3905 8.28733C73.6228 8.28733 73.0385 8.61937 72.6433 9.28058C72.248 9.94465 72.0475 10.9207 72.0475 12.2059C72.0475 14.5245 72.6433 16.4136 73.8262 17.8792C75.012 19.3447 76.5157 20.0718 78.3431 20.0718C78.7499 20.0718 79.1394 20.0202 79.5032 19.9086C79.6492 19.8685 79.7925 19.8142 79.9299 19.754C80.4083 19.5422 80.8694 19.2131 81.3048 18.7665L81.3076 18.7694Z" fill="#980035"/>
<path d="M101.635 22.7708V23.0113H92.8421V22.7708C93.8102 21.2767 94.3229 19.5335 94.3229 17.7531V11.8022C94.3229 11.1095 94.1396 10.5542 93.7758 10.1363C93.4092 9.72122 92.8564 9.51227 92.1174 9.51227C91.6248 9.51227 91.1636 9.59814 90.7368 9.76988C90.3101 9.94163 89.9434 10.1878 89.6341 10.5084V17.7016C89.6341 19.4991 90.1468 21.2595 91.1149 22.7737V23.0141H82.3217V22.7708C83.3671 21.2795 83.9256 19.5049 83.9256 17.6844V5.76827C83.9256 4.35997 83.4473 2.99175 82.568 1.88974V1.67792L89.4479 0.200928L89.6341 0.366946V9.72409C89.9635 9.39205 90.3273 9.07719 90.7283 8.78236C91.1292 8.48467 91.5617 8.22706 92.0229 8.00665C92.484 7.78625 92.9824 7.61164 93.5123 7.47997C94.0422 7.35117 94.6007 7.28533 95.185 7.28533C95.8639 7.28533 96.4969 7.39124 97.0812 7.60306C97.6655 7.81487 98.1782 8.1097 98.6078 8.4904C99.0403 8.87109 99.3812 9.32908 99.6332 9.86148C99.8853 10.3939 100.011 10.9807 100.011 11.6247V17.421C100.011 20.0258 101.028 21.8606 101.449 22.5104L101.632 22.7737L101.635 22.7708Z" fill="#980035"/>
<path d="M117.615 19.216L117.861 19.4278C117.469 20.0404 117.039 20.5899 116.567 21.0766C116.094 21.5632 115.558 21.9782 114.963 22.3188C114.367 22.6595 113.705 22.9199 112.981 23.1031C112.256 23.2835 111.445 23.375 110.552 23.375C109.357 23.375 108.28 23.1804 107.318 22.794C106.356 22.4076 105.536 21.8666 104.858 21.1739C104.179 20.4812 103.657 19.6568 103.291 18.7036C102.927 17.7505 102.744 16.7057 102.744 15.5693C102.744 14.3528 102.944 13.2365 103.345 12.2175C103.746 11.1985 104.313 10.3254 105.044 9.59552C105.774 8.86848 106.651 8.29886 107.673 7.8924C108.696 7.48594 109.824 7.28271 111.059 7.28271C112.202 7.28271 113.218 7.46877 114.115 7.84088C115.009 8.21299 115.765 8.71963 116.383 9.36367C116.999 10.0077 117.472 10.7605 117.795 11.6221C118.119 12.4837 118.282 13.4111 118.282 14.3957H108.547C108.535 14.4473 108.532 14.5217 108.532 14.6219C108.573 15.575 108.721 16.4137 108.974 17.1379C109.226 17.8621 109.569 18.4718 109.999 18.9698C110.431 19.4679 110.95 19.84 111.557 20.0919C112.164 20.3438 112.843 20.4697 113.594 20.4697C114.058 20.4697 114.487 20.4325 114.888 20.3552C115.289 20.2779 115.659 20.1835 116 20.0604C116.34 19.9373 116.641 19.8028 116.91 19.6539C117.177 19.5051 117.414 19.3591 117.621 19.216H117.615ZM108.544 13.8977L111.013 13.7202C111.981 13.6487 112.72 12.8186 112.666 11.8511C112.648 11.5448 112.625 11.2614 112.6 10.9981C112.528 10.2911 112.414 9.71574 112.259 9.27207C112.104 8.83127 111.904 8.50782 111.657 8.30745C111.411 8.10708 111.11 8.0069 110.764 8.0069C110.383 8.0069 110.053 8.14143 109.776 8.41336C109.498 8.68528 109.271 9.07457 109.097 9.58121C108.922 10.0879 108.787 10.7061 108.696 11.4332C108.604 12.1602 108.552 12.9817 108.541 13.8948L108.544 13.8977Z" fill="#980035"/>
<path d="M133.973 9.54669C133.973 10.1077 133.792 10.5771 133.42 10.9521C133.048 11.3271 132.589 11.5131 132.042 11.5131C131.57 11.5131 130.983 11.3156 130.292 10.9149C130.226 10.8748 130.16 10.8376 130.095 10.8033C130.04 10.7632 129.977 10.7231 129.908 10.6831C128.127 9.66691 127.471 10.6831 127.471 10.6831C127.471 10.6831 126.887 11.5761 126.789 12.4978V17.59C126.789 19.4534 127.359 21.2739 128.425 22.8024V23.0142H119.477V22.8024C120.522 21.2911 121.081 19.4992 121.081 17.6616V12.9558C121.081 11.496 120.548 10.0848 119.586 8.98852V8.76239L126.637 7.2854L126.792 7.45142V10.9521L126.915 10.5686C127.305 9.54669 127.898 8.74235 128.7 8.15843C129.493 7.5745 130.401 7.2854 131.418 7.2854C132.157 7.2854 132.767 7.49722 133.251 7.92657C133.732 8.35593 133.973 8.89692 133.973 9.54955V9.54669Z" fill="#980035"/>
<path d="M143.923 22.7997V23.0115H135.007V22.7997L135.557 22.004C136.244 21.0107 136.611 19.8314 136.611 18.6263V12.9416C136.611 11.4876 136.078 10.0878 135.116 9.00014V8.7597L142.167 7.28271L142.322 7.44873V18.6149C142.322 19.8085 142.683 20.9764 143.356 21.9639L143.926 22.7997H143.923ZM136.347 3.99097C136.193 3.64462 136.115 3.26106 136.115 2.83742C136.115 2.41379 136.193 2.06172 136.347 1.71537C136.502 1.36902 136.714 1.06847 136.989 0.810855C137.261 0.55324 137.585 0.355736 137.963 0.215479C138.338 0.0752218 138.75 0.00366211 139.203 0.00366211C139.656 0.00366211 140.074 0.0752218 140.46 0.224066C140.847 0.370048 141.176 0.570415 141.454 0.825167C141.732 1.07992 141.95 1.38047 142.102 1.72109C142.256 2.06172 142.334 2.43383 142.334 2.83456C142.334 3.25533 142.256 3.63889 142.102 3.9881C141.947 4.33445 141.732 4.63214 141.454 4.87544C141.176 5.12161 140.844 5.31625 140.46 5.45651C140.074 5.59676 139.656 5.66546 139.203 5.66546C138.75 5.66546 138.335 5.59676 137.963 5.45651C137.588 5.31625 137.264 5.12161 136.989 4.87544C136.717 4.62928 136.502 4.33159 136.347 3.98524V3.99097Z" fill="#980035"/>
<path d="M159.952 19.216L160.198 19.4278C159.805 20.0404 159.376 20.5899 158.903 21.0766C158.431 21.5632 157.895 21.9782 157.299 22.3188C156.703 22.6595 156.042 22.9199 155.317 23.1031C154.593 23.2835 153.782 23.375 152.888 23.375C151.694 23.375 150.617 23.1804 149.655 22.794C148.692 22.4076 147.873 21.8666 147.194 21.1739C146.515 20.4812 145.994 19.6568 145.627 18.7036C145.264 17.7505 145.08 16.7057 145.08 15.5693C145.08 14.3528 145.281 13.2365 145.682 12.2175C146.083 11.1985 146.65 10.3254 147.38 9.59552C148.111 8.86848 148.987 8.29886 150.01 7.8924C151.032 7.48594 152.161 7.28271 153.395 7.28271C154.538 7.28271 155.555 7.46877 156.451 7.84088C157.345 8.21299 158.101 8.71963 158.72 9.36367C159.336 10.0077 159.808 10.7605 160.132 11.6221C160.456 12.4837 160.619 13.4111 160.619 14.3957H150.883C150.872 14.4473 150.869 14.5217 150.869 14.6219C150.909 15.575 151.058 16.4137 151.31 17.1379C151.562 17.8621 151.906 18.4718 152.335 18.9698C152.768 19.4679 153.286 19.84 153.894 20.0919C154.501 20.3438 155.18 20.4697 155.93 20.4697C156.394 20.4697 156.824 20.4325 157.225 20.3552C157.626 20.2779 157.995 20.1835 158.336 20.0604C158.677 19.9373 158.978 19.8028 159.247 19.6539C159.513 19.5051 159.751 19.3591 159.957 19.216H159.952ZM150.88 13.8977L153.349 13.7202C154.318 13.6487 155.057 12.8186 155.002 11.8511C154.985 11.5448 154.962 11.2614 154.936 10.9981C154.865 10.2911 154.75 9.71574 154.595 9.27207C154.441 8.83127 154.24 8.50782 153.994 8.30745C153.748 8.10708 153.447 8.0069 153.1 8.0069C152.719 8.0069 152.39 8.14143 152.112 8.41336C151.834 8.68528 151.608 9.07457 151.433 9.58121C151.259 10.0879 151.124 10.7061 151.032 11.4332C150.941 12.1602 150.889 12.9817 150.878 13.8948L150.88 13.8977Z" fill="#980035"/>
<path d="M59.0753 6.11185C58.8289 5.16154 58.299 4.42018 57.4111 3.98224C57.2078 3.88205 56.9987 3.79904 56.7924 3.73893C57.0416 3.26378 57.3653 2.77431 57.7892 2.29629C57.984 2.07875 58.1816 1.88125 58.385 1.70092C58.3363 1.60359 58.2904 1.50914 58.2475 1.41181C58.11 1.08836 58.0183 0.753466 57.9668 0.412842C57.54 0.896585 57.1276 1.44903 56.7609 2.08161C56.463 2.5997 56.2253 3.10921 56.0391 3.60154C55.4348 3.5586 54.8276 3.67596 54.2261 3.94789C53.4298 4.30569 52.8713 4.90106 52.5619 5.71684C52.3557 6.25211 52.3013 6.81314 52.3442 7.38275C52.3442 7.40851 52.3471 7.43714 52.3528 7.4629C53.3439 8.0411 53.9454 8.96279 54.2461 9.54958C54.3206 9.69556 54.3779 9.81578 54.418 9.91024C56.0449 9.83582 57.5257 8.10694 59.1984 6.89615C59.1812 6.63281 59.144 6.37233 59.0781 6.11471L59.0753 6.11185ZM54.9851 5.36191C54.3607 5.64528 53.9225 6.11185 53.6761 6.75303C53.5129 7.1738 53.4699 7.61461 53.5043 8.064C53.3525 7.71765 53.2551 7.35413 53.2408 6.97629C53.215 6.32081 53.4097 5.75978 53.8251 5.30466C54.1287 4.97262 54.4867 4.75794 54.8848 4.64345C54.902 4.82378 54.9965 5.04704 55.2801 5.24455C55.1827 5.2789 55.0825 5.31611 54.9851 5.36191V5.36191Z" fill="#980035"/>
<path d="M64.0505 8.55076C64.0505 8.96866 63.9617 9.34936 63.8557 9.65564C63.3344 9.45241 62.6814 9.33219 61.8765 9.34364C58.6141 9.38371 55.2085 13.0104 51.6769 13.0104C50.1904 13.0104 48.045 12.4751 48.045 10.4027C48.045 9.22628 48.6465 8.55648 49.334 8.21872C49.3683 8.42195 49.9698 11.6593 53.1892 11.6593C56.9873 11.6593 59.4133 7.82371 62.9478 7.03369C63.5922 7.28844 64.0505 7.81512 64.0505 8.55076Z" fill="#FDCFA9"/>
<path d="M65.4339 13.1133C65.325 13.3022 64.9641 13.348 64.3541 13.2478C64.5144 12.9759 64.5517 12.6467 64.5517 12.3576C64.5517 12.3089 64.5517 12.2546 64.5402 12.1973C64.5345 12.1372 64.523 12.08 64.5059 12.0227C64.5059 12.0198 64.5059 12.0113 64.503 12.0055C64.4915 11.9626 64.4772 11.9197 64.4572 11.8739C64.2681 11.4102 63.7354 10.9007 62.3147 10.8921C62.2517 10.8921 62.1887 10.8921 62.1228 10.8949C62.0798 10.8949 62.0369 10.8949 61.9939 10.9007C61.928 10.9035 61.865 10.9121 61.7991 10.9178C61.739 10.9235 61.6817 10.9293 61.6216 10.9407C61.5986 10.9407 61.5757 10.9464 61.5528 10.9522C61.4726 10.9636 61.3924 10.9779 61.3122 10.9951C61.3036 10.9951 61.295 10.9951 61.2864 10.998C61.212 11.0123 61.1346 11.0295 61.0602 11.0495C60.9771 11.0667 60.8969 11.0896 60.8138 11.1153C60.748 11.1325 60.6821 11.1554 60.6162 11.1754C60.5618 11.1926 60.5045 11.2127 60.4529 11.2298C60.3985 11.247 60.3412 11.2699 60.2868 11.2899C59.7884 11.4731 59.2986 11.7107 58.8089 11.9769C58.7 12.037 58.5912 12.0943 58.4823 12.1601C58.4107 12.2002 58.3362 12.2431 58.2646 12.286C58.1329 12.3633 57.9983 12.4435 57.8636 12.5236L57.5056 12.203L58.1472 11.6964L60.7193 10.4341L63.4404 10.5486C64.9756 11.9053 65.6401 12.7583 65.4367 13.1133H65.4339Z" fill="#6B0026"/>
<path d="M53.9969 9.57525C54.6443 9.55235 55.1512 9.44072 55.495 9.34054C56.3285 9.10296 57.0588 8.70223 58.1616 8.09254C58.5339 7.88645 58.7316 7.76909 58.743 7.7834C58.7688 7.82347 57.3195 8.80527 55.9504 9.72124L54.1459 10.1277C54.0972 9.9445 54.0456 9.75845 53.9969 9.57525V9.57525Z" fill="#6B0026"/>
<path d="M65.7261 12.4204C65.7261 12.9042 65.6144 13.3049 65.4253 13.6255C65.2506 13.9203 65.0129 14.1436 64.7465 14.2981C64.6491 14.3582 64.546 14.404 64.4429 14.4441C64.2109 14.53 63.9674 14.5729 63.7297 14.5729C63.4204 14.5729 63.1597 14.5271 62.9392 14.4441C62.5869 14.3153 62.3377 14.0949 62.1687 13.8201C61.9424 13.4566 61.8536 13.0015 61.8536 12.5435C61.8536 12.5435 61.9653 13.2133 62.4608 13.5711C62.6413 13.7028 62.8704 13.7886 63.1654 13.7886C63.8242 13.7886 64.1765 13.5568 64.3598 13.2476C64.5202 12.9757 64.5575 12.6465 64.5575 12.3574C64.5575 12.3088 64.5575 12.2544 64.546 12.1971C64.5403 12.137 64.5288 12.0798 64.5116 12.0225C64.5116 12.0197 64.5116 12.0111 64.5088 12.0054C64.4973 11.9624 64.483 11.9195 64.463 11.8737C64.2739 11.41 63.7412 10.9005 62.3205 10.8919C62.2575 10.8919 62.1945 10.8919 62.1286 10.8948C62.0856 10.8948 62.0427 10.8948 61.9997 10.9005C61.9338 10.9033 61.8708 10.9119 61.8049 10.9177C61.7448 10.9234 61.6875 10.9291 61.6273 10.9406C61.6044 10.9406 61.5815 10.9463 61.5586 10.952C61.4784 10.9635 61.3982 10.9778 61.318 10.9949C61.3094 10.9949 61.3008 10.9949 61.2922 10.9978C61.2178 11.0121 61.1404 11.0293 61.0659 11.0493C60.9829 11.0665 60.9027 11.0894 60.8196 11.1152C60.7537 11.1323 60.6879 11.1552 60.622 11.1753C60.5676 11.1924 60.5103 11.2125 60.4587 11.2297C60.4043 11.2468 60.347 11.2697 60.2926 11.2898C59.7942 11.473 59.3044 11.7105 58.8146 11.9767C58.7058 12.0368 58.597 12.0941 58.4881 12.1599C58.4165 12.2 58.342 12.2429 58.2704 12.2859C58.1387 12.3632 58.0041 12.4433 57.8694 12.5235C57.8064 12.5635 57.7405 12.6007 57.6775 12.6408C57.5687 12.7066 57.4627 12.7725 57.3539 12.8412C57.0703 13.0158 56.7839 13.1961 56.5003 13.3679C56.3542 13.4566 56.2082 13.5482 56.0592 13.6369C55.79 13.7972 55.5207 13.9546 55.2544 14.1035C55.1942 14.135 55.1369 14.1665 55.0796 14.198C54.9995 14.2409 54.9221 14.281 54.8419 14.3239C54.7617 14.3668 54.6844 14.404 54.6042 14.4413C54.5039 14.4871 54.4065 14.5357 54.3063 14.5815C54.2891 14.593 54.2662 14.5987 54.249 14.6073C54.1516 14.6502 54.0571 14.6903 53.9597 14.7275C53.9368 14.7389 53.9139 14.7447 53.891 14.7533C53.8595 14.7676 53.8308 14.779 53.7993 14.7905C53.573 14.8763 53.3468 14.9508 53.1234 15.008C53.0775 15.0195 53.0346 15.0338 52.9859 15.0424C52.8942 15.0653 52.8026 15.0853 52.7109 15.1025C52.6794 15.1082 52.6422 15.1139 52.6107 15.1196C52.5276 15.134 52.4474 15.1454 52.3643 15.154C52.307 15.1597 52.2498 15.1654 52.1925 15.1712C52.075 15.1826 51.9605 15.1855 51.843 15.1855C51.7571 15.1855 51.674 15.1855 51.591 15.1826C51.548 15.1826 51.5051 15.1826 51.4621 15.1769C51.3704 15.1769 51.2788 15.1683 51.1871 15.1597C51.1012 15.154 51.0153 15.1454 50.9322 15.134C50.8921 15.1311 50.852 15.1225 50.8148 15.1168C50.7346 15.1082 50.6544 15.0967 50.5799 15.0824C50.4854 15.0681 50.3966 15.0509 50.3078 15.0309C50.3021 15.0309 50.2963 15.0309 50.2906 15.028C50.2075 15.0109 50.1245 14.9908 50.0443 14.9708C50.0185 14.9651 49.9956 14.9593 49.9727 14.9508C49.9183 14.9364 49.8696 14.9221 49.818 14.905C49.6891 14.8677 49.5631 14.8248 49.4428 14.779C49.3855 14.759 49.3311 14.7361 49.2738 14.7103C49.1363 14.6531 49.0046 14.5901 48.8757 14.5214C48.827 14.4956 48.7783 14.4699 48.7325 14.4441C48.7296 14.4441 48.7267 14.4413 48.721 14.4384C48.6179 14.3783 48.5205 14.3182 48.4231 14.2552C48.3887 14.2323 48.3544 14.2094 48.3229 14.1865C48.2799 14.155 48.2398 14.1264 48.1968 14.0949C48.1653 14.0691 48.1338 14.0462 48.0995 14.0205C47.9963 13.9375 47.899 13.8516 47.8073 13.76C47.7643 13.7199 47.7242 13.677 47.6841 13.6341C47.624 13.5711 47.5638 13.5053 47.5094 13.4366C47.4951 13.4194 47.4836 13.4051 47.4693 13.3879C47.4378 13.3507 47.4092 13.3135 47.3805 13.2763C47.349 13.2333 47.3146 13.1875 47.2831 13.1446C47.2631 13.116 47.243 13.0873 47.223 13.0587C47.1915 13.0129 47.1628 12.9643 47.1313 12.9156C47.0941 12.8555 47.0597 12.7897 47.0282 12.7295C46.9881 12.6551 46.9509 12.5836 46.9165 12.5063C46.8907 12.4519 46.8678 12.3975 46.8449 12.3431C46.8163 12.2744 46.7905 12.2029 46.7647 12.1313C46.7418 12.0712 46.7217 12.0054 46.7046 11.9453C46.6874 11.8909 46.6731 11.8336 46.6587 11.7764C46.6559 11.7649 46.653 11.7535 46.6501 11.742C46.633 11.6819 46.6215 11.6247 46.61 11.5646C46.5929 11.4787 46.5785 11.3957 46.5671 11.3098C46.5556 11.2497 46.5499 11.1867 46.5442 11.1266C46.5384 11.0694 46.5327 11.015 46.5298 10.9577C46.5298 10.9291 46.5298 10.9005 46.5298 10.8719C46.527 10.8175 46.527 10.766 46.527 10.7116C46.527 10.2021 46.6215 9.72977 46.7876 9.30613C47.3633 7.84345 48.8098 6.92749 50.3651 6.92749C50.5341 6.92749 50.6973 6.93894 50.8549 6.95611H50.8606C51.4363 7.02481 51.9318 7.21087 52.3557 7.45989C53.3468 8.0381 53.9483 8.95978 54.249 9.54657C54.3235 9.69256 54.3808 9.81278 54.4209 9.90723C54.4753 10.0303 54.4982 10.1047 54.4982 10.1047L54.1516 10.1305H54.1058C54.1058 10.1305 54.0514 10.0418 53.9511 9.89865C53.7277 9.58092 53.2666 8.99986 52.6021 8.55046C52.055 8.18122 51.3676 7.9007 50.5656 7.92933C50.262 7.92933 49.8982 7.98944 49.5459 8.12969C49.5459 8.12969 49.543 8.12969 49.5402 8.12969C49.4714 8.15545 49.4056 8.18408 49.3397 8.21843C48.6523 8.55619 48.0508 9.22599 48.0508 10.4024C48.0508 10.4654 48.0508 10.5284 48.0565 10.5856V10.5913C48.0594 10.6658 48.0679 10.7373 48.0823 10.8089C48.0966 10.9119 48.1195 11.0121 48.1481 11.1094C48.1625 11.1638 48.1797 11.2125 48.1997 11.264C48.2169 11.3155 48.2398 11.3642 48.2599 11.41C48.3028 11.5073 48.3544 11.596 48.4117 11.6819C48.4374 11.7248 48.4661 11.7649 48.5005 11.805C48.5262 11.8422 48.5549 11.8794 48.5892 11.9138C48.5978 11.9252 48.6064 11.9338 48.615 11.9424C48.6408 11.9739 48.6723 12.0025 48.7038 12.0311C48.7754 12.1055 48.8499 12.1714 48.9301 12.2286C48.9702 12.2601 49.0132 12.2916 49.0533 12.3174C49.0933 12.346 49.1306 12.3717 49.1707 12.3946C49.3024 12.4777 49.4457 12.5492 49.5917 12.6122C49.6376 12.6351 49.6891 12.6523 49.7378 12.6723C49.7865 12.6923 49.8352 12.7095 49.8839 12.7267C49.9297 12.7439 49.9784 12.7582 50.0271 12.7725C50.0787 12.7897 50.1302 12.804 50.1846 12.8183C50.2305 12.8297 50.2792 12.844 50.325 12.8526C50.7861 12.9643 51.2645 13.0072 51.6855 13.0072C51.78 13.0072 51.8745 13.0072 51.9691 12.9986C52.0636 12.9957 52.1581 12.9872 52.2526 12.9757C52.3214 12.97 52.393 12.9614 52.4617 12.95C52.4789 12.95 52.4961 12.95 52.5133 12.9442C52.5591 12.9385 52.6049 12.9299 52.6536 12.9213C52.6708 12.9213 52.688 12.9156 52.708 12.9127C52.7539 12.9042 52.7997 12.8956 52.8455 12.887C52.8598 12.887 52.8742 12.8813 52.8885 12.8784C52.9572 12.8641 53.0231 12.8469 53.0919 12.8326C53.1749 12.8154 53.258 12.7925 53.3382 12.7696C53.3754 12.761 53.4098 12.7524 53.447 12.7381C53.4929 12.7267 53.5358 12.7124 53.5788 12.6981C53.6046 12.6895 53.6332 12.6809 53.6618 12.6723C53.7535 12.6437 53.8452 12.6122 53.9368 12.5807C54.0084 12.5549 54.08 12.5292 54.1516 12.5034C54.206 12.4834 54.2605 12.4633 54.312 12.4404C54.4209 12.4004 54.5297 12.3546 54.6386 12.3088C54.8133 12.2344 54.988 12.1571 55.1627 12.0769C55.3117 12.0082 55.4606 11.9367 55.6095 11.8622C55.8244 11.7563 56.0392 11.6447 56.2511 11.5331C56.3571 11.4758 56.4631 11.4214 56.5691 11.3642H56.5719C56.6779 11.3069 56.7839 11.2497 56.8899 11.1953C57.1305 11.0665 57.3682 10.9377 57.6059 10.8117C57.6833 10.7688 57.7635 10.7287 57.8437 10.6858C57.9353 10.6371 58.0298 10.5885 58.1215 10.5398C58.2389 10.4797 58.3564 10.4225 58.4738 10.3652C58.5282 10.3395 58.5798 10.3108 58.6313 10.2879C58.9464 10.1362 59.2615 9.99597 59.5737 9.87002C59.6453 9.8414 59.714 9.81564 59.7856 9.78701C59.9432 9.7269 60.0978 9.67538 60.2554 9.62672C60.4902 9.55516 60.7251 9.49505 60.9571 9.44639C60.96 9.44639 60.9657 9.44639 60.9686 9.44639C61.043 9.43208 61.1175 9.41777 61.192 9.40632C61.2607 9.39487 61.3323 9.38628 61.4011 9.37769C61.4698 9.36911 61.5385 9.36338 61.6073 9.35766C61.6359 9.35766 61.6646 9.35479 61.6932 9.35193C61.7591 9.35193 61.825 9.34621 61.8909 9.34621H62.0083C62.0914 9.34621 62.1773 9.34621 62.2546 9.35193C62.3205 9.35193 62.3864 9.35479 62.4522 9.36338C62.521 9.36624 62.584 9.37483 62.6499 9.38056C62.6671 9.38056 62.6814 9.38055 62.6957 9.38342C62.7473 9.38914 62.796 9.39487 62.8447 9.40345C62.9048 9.40918 62.9649 9.42063 63.0222 9.42922C63.0681 9.43494 63.111 9.44353 63.1569 9.45498C63.1998 9.46356 63.2399 9.47215 63.28 9.48074C63.406 9.50936 63.5263 9.54371 63.6409 9.58092C63.6667 9.58951 63.6953 9.5981 63.7182 9.60668C63.7698 9.62386 63.8185 9.64103 63.8643 9.66107C64.0247 9.72404 64.1737 9.7956 64.3111 9.87575C64.8496 10.182 65.2105 10.6028 65.4339 11.0636C65.6459 11.4987 65.7347 11.971 65.7347 12.4261L65.7261 12.4204Z" fill="#980035"/>
<path d="M64.7465 8.32457C64.7465 8.91994 64.546 9.44662 64.2997 9.87025C63.9245 10.5257 63.4433 10.9265 63.4433 10.9265L63.5321 10.6889L63.5149 10.3798C63.5149 10.3798 63.701 10.0964 63.8528 9.65557C63.956 9.3493 64.0476 8.9686 64.0476 8.55069C64.0476 7.81506 63.5893 7.28838 62.9449 7.03363C62.647 6.91627 62.3147 6.8533 61.9653 6.8533C60.9714 6.8533 60.0491 7.31414 59.1497 7.90666C57.626 8.91135 56.1652 10.2824 54.5354 10.4055C54.4552 10.4112 54.375 10.417 54.2948 10.417C52.3385 10.417 51.8717 8.97719 51.843 8.88846C51.8831 8.94857 52.3271 9.62409 53.5186 9.84449C53.6504 9.86739 53.7907 9.88457 53.9397 9.89888C54.0542 9.91033 54.1774 9.91319 54.3034 9.91319C54.3378 9.91319 54.375 9.91319 54.4094 9.91319C56.0363 9.83877 57.5171 8.10989 59.1898 6.8991C60.1064 6.23216 61.0802 5.72266 62.1687 5.72266C63.2571 5.72266 63.9646 6.19209 64.377 6.8991C64.6176 7.31128 64.7436 7.80647 64.7436 8.33315L64.7465 8.32457Z" fill="#980035"/>
<path fill-rule="evenodd" clip-rule="evenodd" d="M64.5517 12.3577V12.3318C64.9412 13.2592 65.1331 14.2581 65.1331 15.3258C65.1331 16.4822 64.9125 17.5527 64.4686 18.5374C64.0275 19.522 63.4145 20.3693 62.6326 21.082C61.8506 21.7948 60.9226 22.3558 59.8485 22.7623C58.7744 23.1687 57.6087 23.3719 56.3541 23.3719C55.0996 23.3719 53.9396 23.1687 52.8741 22.7623C51.8086 22.3558 50.8863 21.7948 50.1043 21.082C49.3224 20.3693 48.7123 19.522 48.2683 18.5374C47.8272 17.5527 47.6067 16.4707 47.6067 15.3258C47.6067 14.1808 47.8301 13.1189 48.2769 12.1342C48.2998 12.0856 48.3228 12.0369 48.3485 11.9882L49.3883 13.8488H52.327L53.5815 13.4509C53.5529 13.9003 53.5386 14.3783 53.5328 14.8821C53.5328 14.8821 53.5328 14.8822 53.5328 14.8822C53.3954 14.9309 53.2551 14.9738 53.1147 15.011C53.0995 15.0148 53.0845 15.0186 53.0695 15.0225C53.0396 15.0301 53.0097 15.0377 52.9773 15.0454C52.8856 15.0683 52.7939 15.0883 52.7023 15.1055C52.6679 15.1112 52.6335 15.1169 52.602 15.1226C52.519 15.1369 52.4388 15.1484 52.3557 15.157H52.3529C52.3338 15.1589 52.3147 15.1611 52.2956 15.1633C52.2574 15.1678 52.2192 15.1723 52.181 15.1742C52.0664 15.1856 51.949 15.1885 51.8316 15.1885C51.7882 15.1885 51.7456 15.1877 51.7034 15.187C51.6619 15.1863 51.6207 15.1856 51.5795 15.1856C51.5365 15.1856 51.4936 15.1827 51.4506 15.177C51.359 15.177 51.2673 15.1713 51.1785 15.1627C51.0926 15.157 51.0067 15.1484 50.9207 15.1369C52.1065 15.3402 52.9571 15.3058 53.53 15.2085V15.3258C53.53 17.7874 53.7591 19.6423 54.2174 20.8931C54.6757 22.144 55.3975 22.7708 56.3713 22.7708C57.3452 22.7708 58.067 22.144 58.531 20.8931C58.9921 19.6423 59.2241 17.7874 59.2241 15.3258C59.2241 14.2238 59.1754 13.242 59.0809 12.3832C59.0637 12.2058 59.0408 12.034 59.0179 11.868C58.9864 11.6419 58.952 11.4272 58.9119 11.2211L60.0376 10.434L62.8102 10.1277L63.426 10.4225C63.6599 10.7162 63.874 11.0269 64.0653 11.3546C63.7354 11.0962 63.1951 10.9007 62.3176 10.895C62.2545 10.895 62.1887 10.895 62.1256 10.9007C62.0827 10.9007 62.0397 10.9007 61.9968 10.9064C61.9358 10.9091 61.8772 10.9142 61.8166 10.9195L61.802 10.9207C61.7736 10.9248 61.7452 10.9282 61.7172 10.9316C61.6857 10.9354 61.6547 10.9391 61.6244 10.9436C61.6015 10.9465 61.5786 10.9494 61.5528 10.9551C61.4726 10.9665 61.3924 10.9809 61.3122 10.998C61.3079 10.998 61.3036 10.9987 61.2993 10.9995C61.295 11.0002 61.2907 11.0009 61.2864 11.0009C61.2368 11.0104 61.1871 11.0225 61.1375 11.0346L61.1375 11.0346C61.1127 11.0406 61.0878 11.0467 61.063 11.0524C60.9799 11.0725 60.8997 11.0925 60.8167 11.1183C60.7728 11.1297 60.7288 11.1437 60.6849 11.1577C60.663 11.1647 60.641 11.1717 60.619 11.1784C60.5824 11.1899 60.5446 11.2028 60.508 11.2152L60.4558 11.2327C60.4165 11.2452 60.3756 11.2606 60.3355 11.2757L60.3355 11.2757L60.2897 11.2929C59.8629 11.4503 59.4418 11.6478 59.0208 11.8682C59.0437 12.0342 59.0666 12.206 59.0838 12.3834C61.3523 11.5247 63.2742 11.5218 64.0246 12.4521C64.1736 12.6382 64.3025 12.8872 64.3569 13.245H64.3598L64.3733 13.2206C64.3858 13.1982 64.3979 13.1766 64.4085 13.1534C64.4113 13.1448 64.4142 13.1362 64.4199 13.1248C64.4342 13.0962 64.4457 13.0675 64.4543 13.0361V13.0303C64.4686 12.996 64.4772 12.9645 64.4858 12.9301L64.4876 12.9251C64.4897 12.919 64.4915 12.914 64.4915 12.9072C64.5001 12.8786 64.5058 12.85 64.5116 12.8185C64.5124 12.8151 64.5135 12.8116 64.5147 12.8081L64.5147 12.8081C64.5174 12.7999 64.5202 12.7913 64.5202 12.7813C64.5259 12.7527 64.5288 12.7241 64.5316 12.6954C64.537 12.6607 64.5398 12.6234 64.5425 12.5884L64.5431 12.5809C64.5488 12.5065 64.5517 12.4292 64.5517 12.3577Z" fill="#980035"/>
</g>
<defs>
<clipPath id="clip0_42_659">
<rect width="160.616" height="23.3714" fill="white" transform="translate(0 0.00634766)"/>
</clipPath>
</defs>
</svg>
