<svg width="23" height="23" viewBox="0 0 23 23" fill="none" xmlns="http://www.w3.org/2000/svg">
<path d="M11.3232 5.8178C8.25943 5.8178 5.78819 8.28904 5.78819 11.3528C5.78819 14.4165 8.25943 16.8878 11.3232 16.8878C14.3869 16.8878 16.8582 14.4165 16.8582 11.3528C16.8582 8.28904 14.3869 5.8178 11.3232 5.8178ZM11.3232 14.9513C9.34331 14.9513 7.72472 13.3375 7.72472 11.3528C7.72472 9.36809 9.33849 7.75432 11.3232 7.75432C13.3079 7.75432 14.9217 9.36809 14.9217 11.3528C14.9217 13.3375 13.3031 14.9513 11.3232 14.9513ZM18.3756 5.59139C18.3756 6.30916 17.7975 6.88241 17.0846 6.88241C16.3668 6.88241 15.7936 6.30434 15.7936 5.59139C15.7936 4.87844 16.3716 4.30037 17.0846 4.30037C17.7975 4.30037 18.3756 4.87844 18.3756 5.59139ZM22.0415 6.90167C21.9596 5.17229 21.5646 3.64041 20.2977 2.3783C19.0356 1.11619 17.5037 0.721175 15.7743 0.634465C13.9919 0.533303 8.64963 0.533303 6.86725 0.634465C5.14269 0.716358 3.61081 1.11137 2.34388 2.37348C1.07695 3.6356 0.686751 5.16747 0.600041 6.89686C0.498879 8.67923 0.498879 14.0215 0.600041 15.8039C0.681934 17.5333 1.07695 19.0652 2.34388 20.3273C3.61081 21.5894 5.13787 21.9844 6.86725 22.0711C8.64963 22.1723 13.9919 22.1723 15.7743 22.0711C17.5037 21.9892 19.0356 21.5942 20.2977 20.3273C21.5598 19.0652 21.9548 17.5333 22.0415 15.8039C22.1427 14.0215 22.1427 8.68405 22.0415 6.90167ZM19.7389 17.7163C19.3631 18.6605 18.6357 19.3879 17.6867 19.7685C16.2657 20.3321 12.8936 20.202 11.3232 20.202C9.75277 20.202 6.37589 20.3273 4.95963 19.7685C4.01545 19.3927 3.28805 18.6653 2.90749 17.7163C2.34388 16.2953 2.47394 12.9232 2.47394 11.3528C2.47394 9.78238 2.34869 6.4055 2.90749 4.98924C3.28324 4.04506 4.01064 3.31766 4.95963 2.9371C6.38071 2.37348 9.75277 2.50355 11.3232 2.50355C12.8936 2.50355 16.2705 2.3783 17.6867 2.9371C18.6309 3.31284 19.3583 4.04024 19.7389 4.98924C20.3025 6.41032 20.1724 9.78238 20.1724 11.3528C20.1724 12.9232 20.3025 16.3001 19.7389 17.7163Z" fill="#F2F5EA"/>
</svg>
