<svg width="18" height="20" viewBox="0 0 18 20" fill="none" xmlns="http://www.w3.org/2000/svg">
<path d="M17.3478 8.62996C15.6999 8.6339 14.0925 8.12 12.7526 7.16086V13.8502C12.7521 15.0891 12.3734 16.2984 11.6672 17.3163C10.9609 18.3342 9.96068 19.1123 8.80028 19.5464C7.63989 19.9805 6.37461 20.05 5.17365 19.7456C3.97269 19.4412 2.89328 18.7774 2.07975 17.843C1.26623 16.9086 0.757365 15.748 0.621208 14.5166C0.485051 13.2852 0.72809 12.0415 1.31783 10.9519C1.90756 9.86235 2.81588 8.97878 3.92134 8.41937C5.02679 7.85996 6.27669 7.65137 7.50389 7.82149V11.186C6.94232 11.0094 6.33929 11.0147 5.78093 11.2012C5.22256 11.3877 4.73741 11.7459 4.39475 12.2246C4.0521 12.7033 3.86947 13.278 3.87293 13.8667C3.8764 14.4554 4.06579 15.0279 4.41406 15.5026C4.76233 15.9772 5.25167 16.3296 5.81219 16.5096C6.37272 16.6895 6.97577 16.6877 7.53522 16.5045C8.09467 16.3212 8.58191 15.9659 8.92737 15.4892C9.27283 15.0126 9.45883 14.4389 9.45882 13.8502V0.773193H12.7526C12.7503 1.05134 12.7736 1.32912 12.8222 1.603C12.9367 2.2144 13.1746 2.79602 13.5216 3.31229C13.8685 3.82856 14.3172 4.26863 14.84 4.60557C15.5839 5.09742 16.456 5.35958 17.3478 5.35939V8.62996Z" fill="#F2F5EA"/>
</svg>
