<svg width="41" height="54" viewBox="0 0 41 54" fill="none" xmlns="http://www.w3.org/2000/svg">
<g clip-path="url(#clip0_1_370)">
<path d="M38.7935 41.0051C38.3119 39.9841 37.5991 39.069 36.6696 38.2695C35.7353 37.4653 34.5794 36.7814 33.202 36.2131C31.8294 35.6496 30.2498 35.2306 28.4678 34.9609C30.0957 34.6238 31.4971 34.1566 32.6723 33.5642C33.8474 32.9767 34.8202 32.288 35.5908 31.5126C36.0291 31.0695 36.4047 30.6023 36.713 30.1159C36.5588 30.1352 36.4047 30.1448 36.2506 30.1448C35.6004 30.1448 35.0466 30.0437 34.5842 29.8751C33.8426 29.6006 33.3176 29.1382 32.9564 28.5603C32.4796 27.7946 32.2966 26.8362 32.2966 25.8681C32.2966 25.8681 32.5326 27.2792 33.5729 28.0354C33.9533 28.3099 34.4349 28.4929 35.0562 28.4929C36.4432 28.4929 37.1849 28.0065 37.575 27.3563C37.6039 27.2985 37.6328 27.2503 37.6569 27.2022C37.6665 27.1781 37.681 27.154 37.6906 27.1299C37.6906 27.1203 37.7002 27.1107 37.7051 27.0962C37.734 27.0384 37.758 26.9758 37.7773 26.9084C37.7773 26.9036 37.7773 26.8988 37.7773 26.8988C37.8014 26.8458 37.8158 26.7928 37.8303 26.7398C37.8447 26.5328 37.8544 26.3257 37.8544 26.1138C37.8544 25.3913 37.758 24.7026 37.5606 24.0477C37.5269 23.9947 37.4932 23.9417 37.4546 23.8887C37.4161 23.8357 37.3728 23.7876 37.3294 23.7346C37.2861 23.6816 37.2379 23.6335 37.1897 23.5853C37.1368 23.5323 37.0838 23.4842 37.0308 23.436C36.7996 23.2434 36.5203 23.0652 36.1784 22.9111C36.0387 22.8484 35.8894 22.7907 35.7305 22.7377C35.6727 22.7184 35.6149 22.704 35.5523 22.6847C35.4752 22.6606 35.3982 22.6414 35.3211 22.6221C35.167 22.5836 35.0081 22.5499 34.8347 22.521C34.8154 22.521 34.801 22.5161 34.7817 22.5113C34.6131 22.4824 34.4349 22.4583 34.2423 22.4439C34.1412 22.4343 34.04 22.4246 33.9341 22.4198C33.8474 22.415 33.7607 22.4102 33.6692 22.4054C33.5392 22.4006 33.4043 22.3957 33.2695 22.3957C33.202 22.3957 33.1346 22.3957 33.0672 22.4006C32.9998 22.4006 32.9323 22.4006 32.8649 22.4054C32.8216 22.4054 32.7734 22.4054 32.73 22.415C32.6819 22.4102 32.6385 22.415 32.5952 22.4198C32.523 22.4198 32.4555 22.4294 32.3881 22.4343C32.3207 22.4391 32.2533 22.4487 32.181 22.4535C32.1232 22.4583 32.0606 22.468 32.0028 22.4728C31.9932 22.4728 31.9836 22.4776 31.9787 22.4728C31.9209 22.4824 31.8632 22.4921 31.8054 22.5017C31.7572 22.5065 31.7139 22.5113 31.6609 22.521H31.6561C31.4875 22.545 31.3189 22.5787 31.1504 22.6125C31.1359 22.6125 31.1167 22.6173 31.1022 22.6221C31.0444 22.6317 30.9866 22.6462 30.9288 22.6558C30.8277 22.6799 30.7266 22.704 30.6254 22.728C30.452 22.7714 30.2835 22.8099 30.1053 22.8677C29.9656 22.9062 29.8308 22.9496 29.6911 22.9929C29.5755 23.0315 29.4551 23.07 29.3492 23.1085C29.3347 23.1133 29.3155 23.1181 29.301 23.123C29.1999 23.1567 29.0987 23.1952 28.9976 23.2337C28.7472 23.3252 28.4919 23.4264 28.2415 23.5323C28.0488 23.6142 27.8514 23.7009 27.6539 23.7924C27.6491 23.7972 27.6395 23.7972 27.6298 23.802C27.4805 23.8695 27.3264 23.9417 27.1771 24.0139C27.2493 24.4089 27.3023 24.8038 27.3409 25.218C27.3842 25.6707 27.4035 26.1378 27.4035 26.6194C27.4035 27.7705 27.2734 28.8108 27.023 29.7499C26.7726 30.689 26.368 31.4981 25.8045 32.182C25.2459 32.8659 24.5235 33.3957 23.6421 33.7665C22.7608 34.1422 21.6964 34.3252 20.449 34.3252H18.1132V29.3068C18.0795 29.3261 18.0458 29.3453 18.0121 29.3598C17.8435 29.4513 17.6798 29.538 17.5112 29.6247C17.3427 29.7114 17.1789 29.7932 17.0152 29.8751C16.8033 29.9714 16.5962 30.0726 16.3843 30.1689C16.3457 30.1882 16.3024 30.2074 16.2639 30.2219C16.0616 30.3134 15.8593 30.3952 15.657 30.4771C15.6089 30.4964 15.5559 30.5156 15.5077 30.5349C15.4451 30.5638 15.3777 30.5831 15.3151 30.612C14.8431 30.7902 14.3615 30.9443 13.8895 31.0695C13.7932 31.0984 13.6969 31.1225 13.6006 31.1466C13.4079 31.1899 13.2105 31.2332 13.0178 31.2718C12.9504 31.2814 12.8782 31.2959 12.8059 31.3103C12.6325 31.3392 12.464 31.3585 12.2906 31.3825H12.2858C12.1654 31.397 12.045 31.4066 11.9246 31.4163C11.679 31.4355 11.4333 31.4452 11.1877 31.4452C11.0047 31.4452 10.8265 31.4403 10.658 31.4355C10.5664 31.4355 10.4749 31.4355 10.3834 31.4259C10.1908 31.4211 9.99815 31.4066 9.80551 31.3922C9.62731 31.3777 9.4443 31.3585 9.27092 31.3392C9.18905 31.3296 9.10236 31.3151 9.0253 31.3055C8.85674 31.2862 8.68817 31.2621 8.52924 31.2332C8.33178 31.1995 8.13914 31.161 7.95613 31.1225C7.94168 31.1225 7.92723 31.1177 7.9176 31.1128C7.89834 31.1128 7.88389 31.1032 7.86462 31.0984V53.9459H21.3063C24.1767 53.9459 26.7388 53.787 28.9976 53.4643C31.2563 53.1464 33.1587 52.6118 34.7191 51.8702C36.2747 51.1237 37.4643 50.1364 38.283 48.9034C39.1065 47.6705 39.5159 46.139 39.5159 44.3137C39.5159 43.1338 39.2751 42.0309 38.7887 41.0051H38.7935ZM28.174 47.6224C27.8706 48.6626 27.3938 49.5392 26.7437 50.2616C26.0935 50.9792 25.2507 51.5234 24.2152 51.8942C23.1749 52.2651 21.9228 52.4529 20.4539 52.4529H18.1181V35.823H20.7621C22.1828 35.823 23.3869 36.0204 24.3838 36.4202C25.3759 36.8151 26.1898 37.3737 26.8207 38.0913C27.4516 38.8089 27.914 39.6758 28.1981 40.692C28.4823 41.7034 28.6268 42.8256 28.6268 44.0585C28.6268 45.3973 28.4726 46.5821 28.174 47.6224Z" fill="#980035"/>
<path d="M18.1181 29.1527C18.1133 29.3742 18.1181 30.2893 18.1181 30.5253C17.0296 31.1225 13.774 31.9557 9.27094 31.3392C9.45395 31.3633 9.63214 31.3825 9.81515 31.3922C10.003 31.4114 10.1956 31.4211 10.3883 31.4211C10.4798 31.4355 10.5713 31.4403 10.658 31.4403C10.8313 31.4403 11.0095 31.4451 11.1877 31.4451C11.4334 31.4451 11.6838 31.4403 11.9246 31.4163C12.045 31.4114 12.1654 31.3922 12.2858 31.3777H12.2906C12.464 31.3585 12.6326 31.3344 12.8108 31.3055C12.8782 31.291 12.9504 31.2814 13.0227 31.267C13.2153 31.2332 13.4079 31.1899 13.6006 31.1417C13.7017 31.1177 13.7932 31.0936 13.8896 31.0695C14.1833 30.9924 17.8243 29.249 18.1133 29.1479L18.1181 29.1527Z" fill="#6B0026"/>
<path d="M26.4499 12.3157C25.9346 10.3122 24.8173 8.75178 22.9438 7.82709C22.5152 7.61518 22.0769 7.4418 21.6435 7.31658C22.1684 6.31484 22.8523 5.2842 23.7433 4.27282C24.1527 3.81048 24.5717 3.39629 24.9955 3.02064C24.8944 2.81836 24.798 2.61609 24.7065 2.409C24.4176 1.72993 24.2249 1.02197 24.1141 0.304369C23.2135 1.32056 22.3466 2.49087 21.5713 3.82011C20.9403 4.90854 20.4443 5.98734 20.0494 7.0228C18.7779 6.9313 17.4968 7.18173 16.2254 7.75485C14.5494 8.51097 13.3743 9.76315 12.7193 11.4825C12.2858 12.6095 12.1703 13.7942 12.2618 14.9934C12.2618 15.0512 12.2714 15.1042 12.281 15.162C14.3664 16.3804 15.633 18.3261 16.2736 19.5639C16.4325 19.8721 16.5481 20.1225 16.6348 20.32C20.059 20.1659 23.1798 16.5201 26.7052 13.9628C26.6715 13.4089 26.5896 12.8599 26.4499 12.3157ZM17.834 10.736C16.5192 11.3284 15.5945 12.3157 15.0744 13.669C14.7276 14.5552 14.6409 15.4847 14.7132 16.4334C14.3953 15.7014 14.1882 14.9404 14.1593 14.141C14.1015 12.7636 14.5157 11.5788 15.3922 10.6156C16.0279 9.91727 16.7889 9.46456 17.6269 9.22375C17.6654 9.60422 17.8629 10.0762 18.4601 10.4904C18.253 10.5626 18.0459 10.6397 17.8388 10.736H17.834Z" fill="#980035"/>
<path d="M36.9297 17.4496C36.9297 18.331 36.7419 19.1352 36.5204 19.7806C35.4223 19.352 34.0449 19.1015 32.3545 19.1208C25.4819 19.2027 18.3108 26.8458 10.8699 26.8458C7.73946 26.8458 3.21716 25.7188 3.21716 21.3506C3.21716 18.8704 4.48379 17.4593 5.93343 16.7465C6.00567 17.1751 7.2723 23.9995 14.0533 23.9995C22.0529 23.9995 27.1627 15.9133 34.6132 14.2469C35.9713 14.7863 36.9345 15.894 36.9345 17.4448L36.9297 17.4496Z" fill="#FDCFA9"/>
<path d="M37.9844 25.4202V25.478C37.9844 25.6321 37.9796 25.7911 37.97 25.95C37.9603 26.0271 37.9555 26.1137 37.9459 26.1908C37.9363 26.2534 37.9314 26.3112 37.9218 26.3738C37.9122 26.4027 37.9074 26.4268 37.9025 26.4509C37.8881 26.5183 37.8785 26.5761 37.8592 26.6387C37.8592 26.658 37.8544 26.6676 37.8496 26.6869C37.8448 26.7061 37.8399 26.7206 37.8351 26.7398C37.8207 26.7928 37.8062 26.8458 37.7821 26.8988C37.7821 26.8988 37.7821 26.9036 37.7821 26.9084C37.7629 26.9758 37.7388 27.0384 37.7099 27.0962C37.7051 27.1107 37.6955 27.1203 37.6955 27.1299C37.6906 27.1396 37.6858 27.1492 37.6858 27.1588C37.6762 27.1733 37.6714 27.1877 37.6617 27.2022C37.6377 27.2503 37.6088 27.2985 37.5799 27.3515H37.5751C37.4595 26.5954 37.1898 26.0704 36.8767 25.6803C35.3886 23.8357 31.738 23.7298 27.3505 25.218C27.312 24.8038 27.259 24.4089 27.1868 24.0188C27.3361 23.9465 27.4902 23.8743 27.6395 23.802C27.6491 23.7972 27.6587 23.7972 27.6636 23.7924C27.861 23.7009 28.0585 23.6142 28.2511 23.5323C28.5016 23.4264 28.7568 23.3252 29.0072 23.2337C29.1084 23.1952 29.2095 23.1567 29.3107 23.123C29.3251 23.1181 29.3444 23.1133 29.3588 23.1085C29.4648 23.07 29.5852 23.0315 29.7008 22.9929C29.8404 22.9496 29.9753 22.9062 30.1149 22.8677C30.2931 22.8099 30.4617 22.7714 30.6351 22.728C30.7362 22.704 30.8374 22.6799 30.9385 22.6558C30.9963 22.6414 31.0493 22.6317 31.1071 22.6173C31.1263 22.6173 31.1456 22.6125 31.16 22.6125C31.3286 22.5787 31.4972 22.545 31.6657 22.521H31.6705C31.7283 22.5113 31.7717 22.5065 31.8198 22.4969C31.8728 22.4921 31.9306 22.4824 31.9884 22.4728C31.9932 22.4776 32.0028 22.4728 32.0125 22.4728C32.0703 22.468 32.1329 22.4583 32.1907 22.4487C32.2629 22.4439 32.3303 22.4391 32.3978 22.4343C32.4652 22.4343 32.5326 22.4198 32.6049 22.4198C32.6482 22.415 32.6915 22.4102 32.7397 22.415C32.7831 22.4102 32.8312 22.4102 32.8746 22.4102C32.942 22.4006 33.0094 22.4006 33.0768 22.4006C33.1443 22.3957 33.2117 22.3957 33.2791 22.3957C33.414 22.3957 33.5488 22.4006 33.6788 22.4054C33.7704 22.4102 33.857 22.415 33.9437 22.4198C34.0497 22.4198 34.1508 22.4343 34.252 22.4439C34.4398 22.4632 34.6228 22.4872 34.7914 22.5113C34.8106 22.5161 34.8251 22.521 34.8443 22.521C35.0177 22.5499 35.1766 22.5836 35.3308 22.6221C35.4078 22.6414 35.4849 22.6606 35.5619 22.6847C35.6245 22.704 35.6823 22.7184 35.7401 22.7377C35.8991 22.7907 36.0484 22.8484 36.188 22.9111C36.5011 23.0459 36.7563 23.2048 36.973 23.3734C36.973 23.3734 36.973 23.3782 36.9779 23.3782C37.0019 23.3975 37.0212 23.4119 37.0405 23.436C37.0934 23.4842 37.1464 23.5323 37.1994 23.5853C37.2476 23.6335 37.2957 23.6816 37.3391 23.7346C37.3824 23.7876 37.4258 23.8357 37.4643 23.8887C37.5028 23.9417 37.5365 23.9947 37.5702 24.0477C37.6617 24.1873 37.734 24.327 37.7918 24.4667C37.8351 24.563 37.864 24.6545 37.8881 24.7412C37.8929 24.7556 37.8929 24.7652 37.8929 24.7749C37.9266 24.8953 37.9411 25.0157 37.9652 25.1361V25.1457C37.9796 25.242 37.9892 25.3335 37.9892 25.4202H37.9844Z" fill="#6B0026"/>
<path d="M39.8482 27.0721C39.6219 27.4719 38.8609 27.5682 37.575 27.3563C37.917 26.7832 37.9892 26.0897 37.9892 25.4828C37.9892 25.3817 37.9892 25.2661 37.97 25.1457V25.1361C37.9555 25.0205 37.9314 24.9001 37.8977 24.7749C37.8977 24.7652 37.8977 24.7556 37.8881 24.7412C37.864 24.6497 37.8303 24.5582 37.7918 24.4666C37.3968 23.489 36.2699 22.415 33.2743 22.3957C33.1394 22.3957 33.0094 22.3957 32.8697 22.4054C32.7782 22.4054 32.6867 22.4054 32.6 22.4198C32.4604 22.4294 32.3303 22.4391 32.1907 22.4535C32.0654 22.468 31.9402 22.4776 31.815 22.5017C31.7668 22.5017 31.7187 22.5161 31.6705 22.521C31.502 22.545 31.3286 22.5787 31.16 22.6125C31.1407 22.6125 31.1263 22.6125 31.107 22.6221C30.9481 22.651 30.7892 22.6895 30.6351 22.728C30.4617 22.7666 30.2883 22.8147 30.1197 22.8677C29.9801 22.9062 29.8404 22.9496 29.7007 22.9929C29.5852 23.0315 29.4696 23.07 29.354 23.1085C29.2384 23.147 29.1228 23.1904 29.0072 23.2337C27.9621 23.6238 26.9267 24.1199 25.8912 24.6834C25.6649 24.8086 25.4337 24.9338 25.2073 25.0687C25.058 25.1553 24.8991 25.2469 24.745 25.3335C24.4657 25.4973 24.1863 25.6659 23.9022 25.8344L23.1461 25.1602L24.4946 24.091L29.9175 21.4325L35.6486 21.6733C38.885 24.5293 40.2865 26.3305 39.853 27.077L39.8482 27.0721Z" fill="#6B0026"/>
<path d="M15.7534 19.6169C17.1164 19.5639 18.1855 19.3327 18.908 19.1256C20.6658 18.6247 22.2022 17.7771 24.5283 16.496C25.3133 16.0626 25.7323 15.8121 25.7516 15.841C25.8046 15.9229 22.756 17.9938 19.8712 19.9251L16.0713 20.7823C15.9653 20.3922 15.8642 20.007 15.7582 19.6169H15.7534Z" fill="#6B0026"/>
<path d="M40.4599 25.6129C40.4599 26.6291 40.2239 27.4767 39.829 28.151C39.463 28.7722 38.9621 29.2394 38.3986 29.5669C38.1915 29.6921 37.9748 29.7932 37.7533 29.8751C37.4161 30.0003 37.0646 30.0822 36.713 30.1159C36.5589 30.1352 36.4048 30.1448 36.2506 30.1448C35.6005 30.1448 35.0466 30.0437 34.5843 29.8751C33.8426 29.6006 33.3176 29.1382 32.9564 28.5603C32.4797 27.7946 32.2966 26.8362 32.2966 25.8681C32.2966 25.8681 32.5326 27.2792 33.5729 28.0354C33.9534 28.3099 34.435 28.4929 35.0563 28.4929C36.4433 28.4929 37.185 28.0065 37.5751 27.3563C37.6907 27.1588 37.7725 26.9517 37.8351 26.7398C37.9555 26.3257 37.9892 25.8826 37.9892 25.4828C37.9892 25.3769 37.9844 25.2661 37.9652 25.1457V25.1361C37.9507 25.0205 37.9266 24.9001 37.8929 24.7749C37.8929 24.7652 37.8881 24.7556 37.8833 24.7412C37.8592 24.6497 37.8255 24.5582 37.787 24.4666C37.7292 24.327 37.6618 24.1873 37.5654 24.0477C37.0357 23.2048 35.8413 22.4102 33.2743 22.3957C33.1395 22.3957 33.0046 22.3957 32.8698 22.4054C32.7782 22.4054 32.6867 22.4102 32.5952 22.4198C32.4604 22.4198 32.3255 22.4391 32.1859 22.4535C32.0607 22.468 31.9354 22.4776 31.8102 22.5017C31.7621 22.5065 31.7187 22.5113 31.6657 22.521C31.4972 22.5498 31.3238 22.5787 31.1552 22.6125C31.1408 22.6125 31.1215 22.6173 31.1071 22.6221C30.9433 22.651 30.7844 22.6895 30.6303 22.728C30.4569 22.7666 30.2883 22.8147 30.115 22.8677C29.9753 22.9062 29.8356 22.9496 29.696 22.9929C29.5804 23.0315 29.4648 23.07 29.3492 23.1085C29.2336 23.147 29.118 23.1904 29.0024 23.2337C28.3908 23.4601 27.784 23.7202 27.182 24.0139C26.7485 24.221 26.3199 24.4474 25.8864 24.6786C25.6601 24.8038 25.4289 24.929 25.2026 25.0638C25.0484 25.1505 24.8943 25.242 24.7402 25.3335C24.4609 25.4973 24.1815 25.661 23.8974 25.8296C23.7625 25.9115 23.6229 25.9933 23.488 26.0752C23.2617 26.2149 23.0401 26.3594 22.809 26.499C22.2118 26.8699 21.6098 27.2455 21.0126 27.6116C20.7043 27.7994 20.3961 27.992 20.0879 28.1798C19.5196 28.5218 18.9513 28.8493 18.3878 29.1623C18.2963 29.2105 18.2096 29.2586 18.1181 29.3068C18.0844 29.3261 18.0507 29.3453 18.017 29.3598C17.8484 29.4513 17.6847 29.538 17.5161 29.6247C17.3475 29.7114 17.1838 29.7932 17.02 29.8751C16.8081 29.9714 16.601 30.0726 16.3891 30.1689C16.3506 30.1882 16.3073 30.2074 16.2687 30.2219C16.0664 30.3134 15.8642 30.3952 15.6619 30.4771C15.6137 30.4964 15.5608 30.5156 15.5126 30.5349C15.45 30.5638 15.3826 30.5831 15.32 30.612C14.848 30.7902 14.3664 30.9443 13.8944 31.0695C13.7981 31.0984 13.7018 31.1225 13.6054 31.1466C13.4128 31.1899 13.2153 31.2332 13.0227 31.2718C12.9553 31.2814 12.883 31.2959 12.8108 31.3103C12.6374 31.3392 12.4688 31.3585 12.2955 31.3825H12.2906C12.1702 31.397 12.0498 31.4066 11.9294 31.4163C11.6838 31.4355 11.4382 31.4452 11.1926 31.4452C11.0096 31.4452 10.8314 31.4403 10.6628 31.4355C10.5713 31.4355 10.4798 31.4355 10.3883 31.4259C10.1956 31.4211 10.003 31.4066 9.81036 31.3922C9.63216 31.3777 9.44915 31.3585 9.27577 31.3392C9.1939 31.3296 9.10721 31.3151 9.03015 31.3055C8.86159 31.2862 8.69303 31.2621 8.5341 31.2332C8.33664 31.1995 8.14399 31.161 7.96098 31.1225C7.94653 31.1225 7.93209 31.1177 7.92245 31.1128C7.90319 31.1128 7.88874 31.1032 7.86948 31.0984C7.71536 31.0647 7.55643 31.031 7.40713 30.9924C7.35416 30.9828 7.30599 30.9684 7.25783 30.9491C7.14706 30.9202 7.03629 30.8913 6.93034 30.8576C6.65582 30.7805 6.39576 30.689 6.1405 30.5879C6.0201 30.5445 5.90452 30.4964 5.78893 30.4482C5.49997 30.3278 5.22063 30.193 4.95093 30.0485C4.84979 30.0003 4.74866 29.9425 4.64752 29.8847C4.6427 29.8799 4.63789 29.8799 4.62825 29.8751C4.41153 29.7499 4.20444 29.6199 4.00216 29.485C3.92992 29.4368 3.8625 29.3887 3.79026 29.3405C3.70357 29.2731 3.61688 29.2153 3.53019 29.1431C3.45795 29.0949 3.39534 29.0419 3.32791 28.9841C3.11119 28.8108 2.9041 28.6277 2.71145 28.4399C2.61995 28.3532 2.53326 28.2665 2.45139 28.175C2.32135 28.0402 2.19613 27.9053 2.08055 27.7608C2.05165 27.7271 2.02757 27.6982 1.99867 27.6597C1.99386 27.6597 1.99386 27.6549 1.99386 27.6549C1.93125 27.5778 1.86864 27.5008 1.81085 27.4237C1.73861 27.3322 1.67118 27.2359 1.60857 27.1396C1.56523 27.0818 1.52188 27.0192 1.48335 26.9614C1.41593 26.8602 1.35332 26.7639 1.29071 26.658C1.20884 26.5279 1.1366 26.3979 1.06917 26.2679C0.982481 26.1137 0.905423 25.9548 0.833182 25.7959C0.780205 25.6851 0.727228 25.5695 0.679067 25.4539C0.621274 25.3046 0.563481 25.1553 0.510505 25.0061C0.46716 24.8808 0.423815 24.746 0.385287 24.6159C0.346758 24.5004 0.313045 24.38 0.284149 24.2644C0.274517 24.2403 0.269701 24.2162 0.264884 24.1873C0.231172 24.0621 0.207091 23.9417 0.183011 23.8165C0.144482 23.6335 0.11077 23.4553 0.0915055 23.2771C0.0674251 23.147 0.057793 23.017 0.0433447 22.887C0.0288965 22.7666 0.0192643 22.651 0.0144482 22.5306C0.0144482 22.468 0.00963216 22.4102 0.00963216 22.3476C0 22.2368 0 22.126 0 22.0153C0 20.9413 0.197459 19.9443 0.553849 19.0486C1.76269 15.9663 4.81127 14.035 8.0862 14.035C8.44741 14.035 8.78453 14.0591 9.11684 14.0976H9.13129C10.3401 14.2421 11.39 14.6322 12.281 15.1572C13.3743 15.7977 14.2412 16.6357 14.9106 17.4689C15.5222 18.2202 15.9653 18.9715 16.2735 19.5591C16.4325 19.8625 16.5481 20.1177 16.6347 20.3152C16.7455 20.5753 16.7985 20.7294 16.7985 20.7294L16.0664 20.7823H15.9701C15.9701 20.7823 15.8594 20.5945 15.6426 20.2911C15.1803 19.6217 14.2123 18.4177 12.83 17.4689C12.8204 17.4641 12.8108 17.4544 12.8011 17.4496C11.6501 16.6742 10.2053 16.077 8.51002 16.1396C7.86948 16.1396 7.10372 16.2649 6.36686 16.5635C6.36686 16.5635 6.35723 16.5683 6.35241 16.5683C6.20793 16.6164 6.06826 16.6839 5.9286 16.7513C5.54813 16.9391 5.17729 17.1751 4.84016 17.4689C4.81127 17.493 4.78718 17.517 4.75829 17.5411C3.8625 18.3599 3.21233 19.5831 3.21233 21.3555C3.21233 21.4855 3.21714 21.6155 3.22677 21.7407V21.7552C3.23641 21.9093 3.25567 22.0634 3.27975 22.2127C3.30865 22.4294 3.35681 22.6414 3.41942 22.8436C3.44831 22.9592 3.48203 23.0652 3.52537 23.1711C3.5639 23.2819 3.60724 23.383 3.65541 23.4842C3.74691 23.6864 3.85286 23.8743 3.97327 24.0573C4.03106 24.1488 4.08885 24.2307 4.15628 24.3125C4.21407 24.3896 4.27668 24.4715 4.34411 24.5437C4.36337 24.563 4.37782 24.5871 4.39708 24.6015C4.45006 24.6689 4.51748 24.7315 4.58009 24.7941C4.72939 24.9483 4.89314 25.0879 5.05689 25.2131C5.14357 25.2806 5.23026 25.3432 5.31695 25.401C5.39883 25.4588 5.4807 25.5117 5.56739 25.5647C5.84672 25.7429 6.14532 25.8922 6.45355 26.0222C6.55469 26.0704 6.65582 26.1089 6.76178 26.1475C6.86292 26.1908 6.96887 26.2245 7.07001 26.2582C7.17114 26.2968 7.26747 26.3257 7.37342 26.3594C7.47937 26.3931 7.59496 26.422 7.70573 26.4509C7.71055 26.4509 7.71536 26.4557 7.72018 26.4557C7.81168 26.4798 7.90801 26.5039 8.00433 26.5231C8.97718 26.7591 9.97892 26.8506 10.8699 26.8506C11.0674 26.8506 11.2648 26.8458 11.4623 26.8313C11.6597 26.8217 11.8572 26.8073 12.0595 26.7832C12.2039 26.7687 12.3484 26.7543 12.4977 26.7254C12.5363 26.7254 12.57 26.7254 12.6037 26.7158C12.7048 26.7013 12.8011 26.6869 12.8975 26.6676C12.936 26.6628 12.9697 26.6531 13.0082 26.6483C13.1046 26.6339 13.2057 26.6146 13.2972 26.5954C13.3309 26.5905 13.3598 26.5809 13.3887 26.5761C13.5332 26.5472 13.6729 26.5135 13.8173 26.4798C13.9859 26.4412 14.1641 26.3979 14.3375 26.3449C14.4145 26.3257 14.4868 26.3064 14.5638 26.2775C14.6602 26.2534 14.7517 26.2293 14.848 26.1956C14.901 26.1812 14.9636 26.1619 15.0214 26.1426C15.214 26.08 15.4115 26.0174 15.6041 25.95C15.7534 25.897 15.9075 25.8392 16.0568 25.7863C16.1676 25.7429 16.2832 25.6996 16.3988 25.6514C16.6251 25.5647 16.8563 25.4684 17.0826 25.3721C17.4294 25.2228 17.7762 25.0687 18.1181 24.9097C18.1422 24.9001 18.1614 24.8905 18.1855 24.8808C18.4986 24.7315 18.8116 24.5822 19.1247 24.4281C19.5774 24.2018 20.0301 23.9706 20.478 23.7346C20.7043 23.6142 20.9259 23.4938 21.1474 23.3782C21.1522 23.3734 21.157 23.3734 21.157 23.3734C21.3786 23.253 21.6049 23.1326 21.8265 23.017C22.3322 22.7473 22.833 22.4728 23.3339 22.2127C23.4977 22.1212 23.6662 22.0345 23.8348 21.9478C24.0274 21.8467 24.2249 21.7407 24.4223 21.6444C24.668 21.5192 24.9184 21.394 25.164 21.2736C25.2748 21.2158 25.3856 21.158 25.4963 21.1098C25.6216 21.0472 25.742 20.9894 25.8672 20.9316C26.4066 20.6764 26.9412 20.4452 27.4757 20.2285L27.9236 20.0551C28.2559 19.9299 28.5834 19.8191 28.9158 19.718C29.4118 19.5639 29.903 19.4338 30.3943 19.3375C30.4039 19.3375 30.4136 19.3327 30.4136 19.3327C30.5773 19.3038 30.7314 19.2701 30.8855 19.2508C31.03 19.2268 31.1793 19.2075 31.3238 19.193C31.4731 19.1738 31.6128 19.1593 31.7621 19.1497C31.8198 19.1449 31.8825 19.1401 31.9403 19.1352C32.0799 19.1304 32.2148 19.1208 32.3544 19.1208H32.6001C32.7253 19.1208 32.8457 19.1208 32.9661 19.1304C33.0191 19.1304 33.0672 19.1304 33.1202 19.1352C33.2599 19.1401 33.3995 19.1449 33.5344 19.1545C33.6789 19.1641 33.8137 19.1786 33.9534 19.193C33.9871 19.193 34.0208 19.193 34.0545 19.1979C34.1605 19.2123 34.2616 19.2268 34.3676 19.2412C34.4976 19.2557 34.6228 19.2749 34.7432 19.299C34.8347 19.3134 34.931 19.3279 35.0274 19.352C35.1189 19.3664 35.2007 19.3857 35.2874 19.4049C35.5523 19.4676 35.8076 19.5398 36.0484 19.6169C36.1062 19.6361 36.1591 19.6506 36.2121 19.6698C36.3181 19.7035 36.424 19.7421 36.5203 19.7806C36.8623 19.9155 37.1705 20.0648 37.4595 20.2333C38.5961 20.8787 39.357 21.7648 39.829 22.7377C40.2769 23.6527 40.4599 24.6497 40.4599 25.6129Z" fill="#980035"/>
<path d="M38.3986 16.9776C38.3986 18.2298 37.9748 19.3423 37.4594 20.2333C36.6648 21.6107 35.6582 22.4583 35.6582 22.4583L35.8461 21.9575L35.8075 21.3073C35.8075 21.3073 36.1976 20.7149 36.5203 19.7806C36.7419 19.1352 36.9297 18.331 36.9297 17.4496C36.9297 15.8988 35.9665 14.7911 34.6083 14.2517C33.9822 14.0013 33.2791 13.8713 32.5422 13.8713C30.4472 13.8713 28.5064 14.8441 26.6088 16.0915C23.3965 18.2057 20.3238 21.1002 16.89 21.3603C16.7214 21.3747 16.5528 21.3795 16.3843 21.3795C12.2617 21.3795 11.2792 18.3454 11.2214 18.1576C11.3033 18.2876 12.2424 19.7084 14.7516 20.1755C15.0261 20.2237 15.3247 20.2622 15.6378 20.2863C15.8786 20.3056 16.1387 20.3152 16.4035 20.3152C16.4758 20.3152 16.5528 20.3152 16.6299 20.3152C20.0541 20.1611 23.1749 16.5153 26.7003 13.958C28.6316 12.5517 30.6832 11.4777 32.9757 11.4777C35.2681 11.4777 36.7611 12.4698 37.6232 13.958C38.1337 14.8297 38.3938 15.8699 38.3938 16.9776H38.3986Z" fill="#980035"/>
<path fill-rule="evenodd" clip-rule="evenodd" d="M12.8203 44.2075H7.84919C7.57326 47.4957 6.545 50.6857 4.83112 53.5409V53.9458H12.8203V44.2075Z" fill="#980035"/>
</g>
<defs>
<clipPath id="clip0_1_370">
<rect width="40.4599" height="53.6463" fill="white" transform="translate(0 0.299553)"/>
</clipPath>
</defs>
</svg>
